<svg width="79" height="63" viewBox="0 0 79 63" fill="none" xmlns="http://www.w3.org/2000/svg">
<g clip-path="url(#clip0_266_6451)">
<path d="M30.9041 25.5C30.9041 24.691 31.5599 24.0352 32.3689 24.0352H46.2993C47.1083 24.0352 47.7641 24.691 47.7641 25.5C47.7641 26.309 47.1083 26.9648 46.2993 26.9648H32.3689C31.5599 26.9648 30.9041 26.309 30.9041 25.5Z" fill="white"/>
<path d="M59.9395 18.1758H58.377V17.1992C58.377 14.7761 56.4055 12.8047 53.9824 12.8047H24.6855C22.2625 12.8047 20.291 14.7761 20.291 17.1992V18.1758H18.7285C16.3054 18.1758 14.334 20.1472 14.334 22.5703V28.4297C14.334 30.8528 16.3054 32.8242 18.7285 32.8242H20.291V33.8008C20.291 36.2239 22.2625 38.1953 24.6855 38.1953H30.7276C32.5686 38.1953 34.3436 37.6441 35.8607 36.6012C37.9382 35.1733 40.7302 35.1733 42.8076 36.6012C44.3248 37.6441 46.0993 38.1953 47.9403 38.1953H53.9824C56.4055 38.1953 58.377 36.2239 58.377 33.8008V32.8242H59.9395C62.3625 32.8242 64.334 30.8528 64.334 28.4297V22.5703C64.334 20.1472 62.3625 18.1758 59.9395 18.1758ZM18.7285 29.8945C17.9209 29.8945 17.2637 29.2373 17.2637 28.4297V22.5703C17.2637 21.7627 17.9209 21.1055 18.7285 21.1055H20.291V29.8945H18.7285ZM55.4473 33.8008C55.4473 34.6084 54.79 35.2656 53.9824 35.2656H47.9403C46.6948 35.2656 45.4936 34.8925 44.467 34.1868C42.9499 33.1443 41.175 32.593 39.334 32.593C37.493 32.593 35.718 33.1443 34.2009 34.1868C33.1744 34.8925 31.9731 35.2656 30.7276 35.2656H24.6855C23.878 35.2656 23.2207 34.6084 23.2207 33.8008V17.1992C23.2207 16.3916 23.878 15.7344 24.6855 15.7344H53.9824C54.79 15.7344 55.4473 16.3916 55.4473 17.1992V33.8008ZM61.4043 28.4297C61.4043 29.2373 60.747 29.8945 59.9395 29.8945H58.377V21.1055H59.9395C60.747 21.1055 61.4043 21.7627 61.4043 22.5703V28.4297Z" fill="white"/>
</g>
<path d="M14.174 47.3L7.14998 58.5H4.02998L1.48598 47.3H4.73398L6.33398 54.58L10.91 47.3H14.174ZM24.1416 50.868C24.1416 51.892 23.8696 52.7773 23.3256 53.524C22.7816 54.26 22.0189 54.7987 21.0376 55.14L22.9416 58.5H19.6296L17.9656 55.524H16.3656L15.7736 58.5H12.6056L14.8456 47.3H19.6296C21.0589 47.3 22.1683 47.6147 22.9576 48.244C23.7469 48.8733 24.1416 49.748 24.1416 50.868ZM20.9416 51.172C20.9416 50.7133 20.7869 50.372 20.4776 50.148C20.1683 49.9133 19.7363 49.796 19.1816 49.796H17.5176L16.8456 53.076H18.7336C19.4376 53.076 19.9816 52.9107 20.3656 52.58C20.7496 52.2493 20.9416 51.78 20.9416 51.172ZM33.2816 58.724C32.3536 58.724 31.4736 58.612 30.6416 58.388C29.8096 58.164 29.1323 57.876 28.6096 57.524L29.8576 55.156C30.4229 55.5187 31.0256 55.796 31.6656 55.988C32.3056 56.1693 32.9456 56.26 33.5856 56.26C34.1936 56.26 34.6629 56.1747 34.9936 56.004C35.3349 55.8227 35.5056 55.5773 35.5056 55.268C35.5056 55.0013 35.3509 54.7933 35.0416 54.644C34.7429 54.4947 34.2736 54.3347 33.6336 54.164C32.9083 53.972 32.3056 53.78 31.8256 53.588C31.3456 53.3853 30.9296 53.0813 30.5776 52.676C30.2363 52.2707 30.0656 51.7373 30.0656 51.076C30.0656 50.276 30.2843 49.5773 30.7216 48.98C31.1589 48.372 31.7829 47.9027 32.5936 47.572C33.4043 47.2413 34.3536 47.076 35.4416 47.076C36.2416 47.076 36.9883 47.1613 37.6816 47.332C38.3749 47.492 38.9723 47.7267 39.4736 48.036L38.3216 50.388C37.8843 50.1107 37.3989 49.9027 36.8656 49.764C36.3429 49.6147 35.8043 49.54 35.2496 49.54C34.6203 49.54 34.1243 49.6413 33.7616 49.844C33.4096 50.0467 33.2336 50.308 33.2336 50.628C33.2336 50.9053 33.3883 51.1187 33.6976 51.268C34.0069 51.4173 34.4869 51.5773 35.1376 51.748C35.8629 51.9293 36.4603 52.116 36.9296 52.308C37.4096 52.5 37.8203 52.7933 38.1616 53.188C38.5029 53.5827 38.6736 54.1 38.6736 54.74C38.6736 55.5293 38.4496 56.228 38.0016 56.836C37.5643 57.4333 36.9349 57.8973 36.1136 58.228C35.3029 58.5587 34.3589 58.724 33.2816 58.724ZM52.345 47.3L50.105 58.5H46.937L47.801 54.148H43.497L42.633 58.5H39.465L41.705 47.3H44.873L44.041 51.492H48.345L49.177 47.3H52.345ZM58.4036 58.724C57.2729 58.724 56.2863 58.516 55.4436 58.1C54.6116 57.684 53.9663 57.1027 53.5076 56.356C53.0596 55.6093 52.8356 54.756 52.8356 53.796C52.8356 52.516 53.1289 51.364 53.7156 50.34C54.3129 49.316 55.1396 48.516 56.1956 47.94C57.2623 47.364 58.4729 47.076 59.8276 47.076C60.9583 47.076 61.9396 47.284 62.7716 47.7C63.6143 48.116 64.2596 48.6973 64.7076 49.444C65.1663 50.1907 65.3956 51.044 65.3956 52.004C65.3956 53.284 65.0969 54.436 64.4996 55.46C63.9129 56.484 63.0863 57.284 62.0196 57.86C60.9636 58.436 59.7583 58.724 58.4036 58.724ZM58.6756 56.1C59.3796 56.1 59.9983 55.924 60.5316 55.572C61.0649 55.22 61.4756 54.7507 61.7636 54.164C62.0516 53.5667 62.1956 52.9107 62.1956 52.196C62.1956 51.4387 61.9609 50.836 61.4916 50.388C61.0329 49.9293 60.3876 49.7 59.5556 49.7C58.8516 49.7 58.2329 49.876 57.6996 50.228C57.1663 50.58 56.7556 51.0547 56.4676 51.652C56.1796 52.2387 56.0356 52.8893 56.0356 53.604C56.0356 54.3613 56.2649 54.9693 56.7236 55.428C57.1929 55.876 57.8436 56.1 58.6756 56.1ZM72.8629 47.3C74.3135 47.3 75.4335 47.6147 76.2229 48.244C77.0122 48.8733 77.4069 49.7587 77.4069 50.9C77.4069 51.8387 77.1775 52.66 76.7189 53.364C76.2709 54.068 75.6255 54.612 74.7829 54.996C73.9509 55.38 72.9802 55.572 71.8709 55.572H69.6309L69.0549 58.5H65.8869L68.1269 47.3H72.8629ZM72.0149 53.076C72.7189 53.076 73.2575 52.9107 73.6309 52.58C74.0149 52.2493 74.2069 51.78 74.2069 51.172C74.2069 50.7133 74.0522 50.372 73.7429 50.148C73.4442 49.9133 73.0122 49.796 72.4469 49.796H70.7829L70.1269 53.076H72.0149Z" fill="white"/>
<defs>
<clipPath id="clip0_266_6451">
<rect width="50" height="50" fill="white" transform="translate(14.334 0.5)"/>
</clipPath>
</defs>
</svg>
