<svg width="22" height="22" viewBox="0 0 22 22" fill="none" xmlns="http://www.w3.org/2000/svg">
<path fill-rule="evenodd" clip-rule="evenodd" d="M13.7611 15.5065C12.3712 16.4968 10.6706 17.0793 8.83398 17.0793C4.13956 17.0793 0.333984 13.2738 0.333984 8.57935C0.333984 3.88492 4.13956 0.0793457 8.83398 0.0793457C13.5284 0.0793457 17.334 3.88492 17.334 8.57935C17.334 10.416 16.7515 12.1166 15.7611 13.5065L21.3459 19.0913C21.8961 19.6415 21.8915 20.5218 21.3457 21.0676L21.3223 21.0911C20.7778 21.6355 19.8916 21.637 19.3459 21.0913L13.7611 15.5065ZM8.83398 15.0793C12.4238 15.0793 15.334 12.1692 15.334 8.57935C15.334 4.98949 12.4238 2.07935 8.83398 2.07935C5.24413 2.07935 2.33398 4.98949 2.33398 8.57935C2.33398 12.1692 5.24413 15.0793 8.83398 15.0793Z" fill="white"/>
</svg>
