<svg width="17" height="14" viewBox="0 0 17 14" fill="none" xmlns="http://www.w3.org/2000/svg">
<path d="M16.592 2.12874C15.9939 2.39428 15.351 2.57312 14.6763 2.65374C15.3652 2.24119 15.8943 1.58748 16.1429 0.808446C15.4987 1.19051 14.7847 1.46825 14.0246 1.61796C13.417 0.969672 12.5492 0.564575 11.59 0.564575C9.43647 0.564575 7.85402 2.5738 8.3404 4.65957C5.56908 4.5207 3.1114 3.19296 1.46595 1.17493C0.592081 2.67406 1.01276 4.63519 2.49766 5.62828C1.95166 5.61067 1.43682 5.46096 0.987694 5.21099C0.951113 6.75619 2.05869 8.2018 3.66282 8.52358C3.19337 8.65093 2.67921 8.68074 2.15624 8.58048C2.58031 9.90551 3.81186 10.8695 5.27237 10.8966C3.87011 11.996 2.1034 12.4872 0.333984 12.2785C1.81008 13.2249 3.56392 13.777 5.44715 13.777C11.6401 13.777 15.139 8.54661 14.9276 3.85548C15.5793 3.38467 16.145 2.79735 16.592 2.12874Z" fill="white"/>
</svg>
